<?xml version="1.0" encoding="utf-8"?>
<!-- Generator: Adobe Illustrator 24.1.1, SVG Export Plug-In . SVG Version: 6.00 Build 0)  -->
<svg version="1.1" id="Layer_1" xmlns="http://www.w3.org/2000/svg" xmlns:xlink="http://www.w3.org/1999/xlink" x="0px" y="0px"
	 viewBox="0 0 498 499.4" style="enable-background:new 0 0 498 499.4;" xml:space="preserve">
<style type="text/css">
	.st0{fill:url(#SVGID_1_);stroke:#0C0D2A;stroke-width:0.5;stroke-miterlimit:10;}
	.st1{fill:#060021;stroke:#0C0D2A;stroke-width:0.75;stroke-miterlimit:10;}
	.st2{fill:url(#SVGID_2_);}
	.st3{fill:url(#SVGID_3_);}
	.st4{fill:#F63577;}
	.st5{fill:url(#SVGID_4_);}
	.st6{fill:#FA8176;}
	.st7{fill:#BEADAC;}
	.st8{fill:#A799A0;}
	.st9{fill:url(#SVGID_5_);}
	.st10{fill:#F9D668;}
	.st11{opacity:0.35;fill:#07012A;enable-background:new    ;}
	.st12{fill:url(#SVGID_6_);}
	.st13{fill:url(#SVGID_7_);}
	.st14{fill:url(#SVGID_8_);}
</style>
<linearGradient id="SVGID_1_" gradientUnits="userSpaceOnUse" x1="146.315" y1="325.655" x2="499.7483" y2="325.655" gradientTransform="matrix(1 0 0 -1 -1.95 502.25)">
	<stop  offset="0" style="stop-color:#251263"/>
	<stop  offset="1" style="stop-color:#0D0152"/>
</linearGradient>
<path class="st0" d="M486.4,85.3c-24.7,30.5-49.9,60.6-74.9,90.8c-15.8,19.2-31.7,38.3-47.6,57.4c-18.5,22.3-36.8,44.7-55.5,66.7
	c-2.6,3-5.2,5.9-7.9,8.7c-0.6,0.6-1.2,1.2-1.8,1.9c-0.2,0.2-0.3,0.3-0.5,0.5c-0.1,0.1-0.1,0.1-0.2,0.2
	c-14.3,13.8-30.7,25.5-48.4,34.5c-4.6,2.4-9.3,4.6-14,6.9c-2.1-5.5-7.5-8.3-10.7-12.9c-0.5-0.5-1-0.9-1.4-1.4
	c-2.6-2.5-6.6-6.4-11.5-11.1c-5.9-5.7-10.8-10.7-26.2-26.1c-8.7-8.7-17.5-17.4-26.2-26.1c-4.8-5.1-9.4-10.3-15.2-14.3
	c17.2-38.7,45.6-67.7,78.2-93.9C279,121.9,334.4,75.4,390.2,29.4c1.2-1,2.6-1.9,3.9-2.9v0.2c8.8-7.5,17.1-15.8,27.6-21
	c29.7-14.7,65.7,1.7,74.1,33.7C500.2,56.1,497.3,71.9,486.4,85.3z"/>
<path class="st1" d="M298.1,311.5c-14.6,14.3-31.2,26.3-49.4,35.5c-4.3,2.2-8.6,4.3-12.9,6.4c-0.4,0.2-0.7,0.4-1.1,0.5
	c-2.1-5.5-7.5-8.3-10.7-12.9c0-0.3,0.1-0.5,0.1-0.8c0.1-0.3,0.2-0.7,0.3-0.7c0.1,0,0.1,0.1,0.3,0.3c0.1,0.1,0.2,0.2,0.3,0.2
	c3.2,4.6,8.6,7.4,10.7,12.9c4.7-2.3,9.3-4.5,14-6.9C267.4,337,283.7,325.4,298.1,311.5z"/>
<linearGradient id="SVGID_2_" gradientUnits="userSpaceOnUse" x1="373.091" y1="39.5453" x2="401.118" y2="39.5453" gradientTransform="matrix(1 0 0 -1 -1.95 502.25)">
	<stop  offset="0" style="stop-color:#F51967"/>
	<stop  offset="1" style="stop-color:#7D1183"/>
</linearGradient>
<path class="st2" d="M399.2,464.5c-6,0-12.1-0.6-17.9-2c-3.3-0.7-6.7-1.2-10.1-1.6c0.2,0,0.4,0,0.7-0.1c3.5,0.4,7,0.9,10.4,1.7
	C387.8,463.8,393.5,464.5,399.2,464.5z"/>
<linearGradient id="SVGID_3_" gradientUnits="userSpaceOnUse" x1="18.9476" y1="23.5287" x2="164.2775" y2="145.4751" gradientTransform="matrix(1 0 0 -1 -1.95 502.25)">
	<stop  offset="0" style="stop-color:#FFFF25"/>
	<stop  offset="1.600000e-02" style="stop-color:#FBFC23"/>
	<stop  offset="8.100000e-02" style="stop-color:#F0F51C"/>
	<stop  offset="0.15" style="stop-color:#ECF31A"/>
	<stop  offset="0.387" style="stop-color:#FB7B1E"/>
	<stop  offset="0.732" style="stop-color:#F71818"/>
	<stop  offset="1" style="stop-color:#AE0000"/>
</linearGradient>
<path class="st3" d="M190.3,411.8c0.1,18.7-5,35.9-17.5,50.2c-16.3,18.9-36.4,31.5-61.3,36c-2.3,0.4-5-0.5-7,1.4H78.1
	c-4-2.1-8.8-0.7-12.7-3.1c-10.1-1.6-19.3-5.4-28.4-9.9c-7.3-3.7-14.5-7.6-20.7-13.1c-6.1-5-13.5-8.7-16.4-16.8c3.3-2,7.7-2.9,7.6-8
	c5.5-4.2,10.4-9.1,14.8-14.5c3.4-5.7,2.4-11.8,1.5-17.9c-2.6-17.8-3.3-35.6,4.3-52.5c11.1-24.7,30.3-38.9,57.3-43
	c11.2-1.7,22-0.5,32.8,1.9c5.2,4.5,10.2,9.3,14.7,14.5c8.8,8.8,17.7,17.6,26.5,26.4c2,2,3.9,3.9,5.8,5.9l1,1.2l0-0.1
	c2.3,2,4.5,4,6.8,6c1.5,1.5,2.9,3.1,4.4,4.6l7.9,3.2C188.5,393,190.1,402.4,190.3,411.8z"/>
<path class="st4" d="M168.1,122.8h-0.8C167.6,122.8,167.9,122.8,168.1,122.8z"/>
<linearGradient id="SVGID_4_" gradientUnits="userSpaceOnUse" x1="169.266" y1="379.4403" x2="170.082" y2="379.4403" gradientTransform="matrix(1 0 0 -1 -1.95 502.25)">
	<stop  offset="0" style="stop-color:#F50255"/>
	<stop  offset="1" style="stop-color:#771083"/>
</linearGradient>
<path class="st5" d="M168.1,122.8h-0.8C167.6,122.8,167.9,122.8,168.1,122.8z"/>
<polygon class="st6" points="168.1,122.8 168.1,122.8 168.1,122.8 "/>
<path class="st7" d="M192.2,366.7c-6.1,3.6-12.7,6.5-19.1,9.7c-2.2-2-4.5-4-6.8-6l0,0.1l-1-1.2c-1.9-2-3.9-3.9-5.8-5.9
	c-8.8-8.8-17.7-17.6-26.5-26.4c-4.6-5.2-9.5-10-14.7-14.5c-2.5-5.2-5.4-10.1-5-16.4c0.4-6.1,3.9-10.9,5.9-16.3
	c2.4-6.3,6-12.2,8.5-18.5c3.1-7.7,8.5-11.1,16.7-10.3c5.8,4,10.4,9.2,15.2,14.3v0c-0.6,1.5-0.9,3.1-1.1,4.7
	c-0.1,8.8-0.3,17.6,0.1,26.3c0.2,4.3,2,8.3,5.1,11.2c10.3,10,20.4,20.2,30.5,30.3C199.9,353.9,199.2,362.5,192.2,366.7z"/>
<path class="st8" d="M235.9,355.6c0.1,1.9-0.2,3.9-0.9,5.7c-0.2,0.6-0.5,1.1-0.8,1.6c-0.2,0.2-0.3,0.5-0.5,0.7
	c-1.8,2.6-4.8,4.5-8.6,6c-7.7,3-15,6.9-22.5,10.6c-5.5,2.7-11.1,4.5-17.3,4l-7.9-3.2c-1.5-1.5-2.9-3.1-4.4-4.6
	c6.4-3.2,13-6,19.1-9.7c7.1-4.2,7.7-12.8,1.9-18.7c-10.1-10.2-20.2-20.4-30.5-30.3c-3.1-2.9-4.9-7-5.1-11.2
	c-0.4-8.8-0.2-17.6-0.1-26.3c0.2-1.6,0.6-3.2,1.1-4.7l26.2,26.1c8.7,8.7,17.5,17.4,26.3,26.1c4.1,4,8.2,8,12.4,11.9
	c0.2,0.2,0.4,0.4,0.6,0.5c3.2,4.6,8.6,7.4,10.7,12.9c0,0.2,0.1,0.3,0.1,0.5c0,0.2,0.1,0.4,0.1,0.6c0.1,0.4,0.1,0.7,0.1,1.1
	C235.9,355.3,236,355.4,235.9,355.6z"/>
<linearGradient id="SVGID_5_" gradientUnits="userSpaceOnUse" x1="0.9759" y1="397.7197" x2="172.9904" y2="397.7197" gradientTransform="matrix(0.9562 -0.2926 -0.2926 -0.9562 148.2028 518.0652)">
	<stop  offset="0" style="stop-color:#12376A"/>
	<stop  offset="3.100000e-02" style="stop-color:#184071"/>
	<stop  offset="0.184" style="stop-color:#326A93"/>
	<stop  offset="0.34" style="stop-color:#488CAE"/>
	<stop  offset="0.498" style="stop-color:#59A7C4"/>
	<stop  offset="0.659" style="stop-color:#65BAD3"/>
	<stop  offset="0.824" style="stop-color:#6DC5DC"/>
	<stop  offset="1" style="stop-color:#6FC9DF"/>
</linearGradient>
<path class="st9" d="M196.8,112.3c-3.8,21.4-15.8,37.4-34.9,48c-0.3,0.2-0.7,0.3-1,0.4c-3.2,1.7-6.5,3.1-10,4.2
	c-4.3,1.3-8.7,2.1-13.2,2.4c-2.8,0.2-5.5,0.7-8.3,1.1c-0.2,0.1-0.3,0.1-0.5,0.2c-2.6,1.1-4.5,3.1-6.7,4.8
	c-7.9,16.1-24.3,25.9-41.1,24.4c-20-1.9-34.7-13.3-39.6-32.1c-4-15-0.3-28.6,10.2-40.3c3.1-3.4,7.4-5.6,9.8-9.6
	c2-3.2,2.9-6.9,2.6-10.6c-1.4-23.5,7.1-42.8,25-58c0.6-0.5,1.2-0.9,1.9-1.2c0.2-0.1,0.5-0.3,0.7-0.4c5.6-4.6,12.1-8.1,19-10.3
	c3.1-0.9,6.3-1.6,9.6-1.9c0,0,0,0.1,0,0.1c15.2-2.6,30.9,0.4,44.1,8.5C189.7,57.5,202,83.4,196.8,112.3z"/>
<path class="st10" d="M7.6,448.5c0.1,5.1-4.3,6.1-7.6,8C0.2,451.6,4.1,450.2,7.6,448.5z"/>
<path class="st11" d="M488.4,23L290.3,239.9l-48.3,8.4l-82.4,27.1c25.4,26.2,50.8,52.4,76.3,78.6c12.9-6.5,27.9-15.4,43.4-27.5
	c21.1-16.5,36.5-33.7,47.3-47.7c53.3-64.5,106.6-129,159.9-193.5C486.4,85.3,511.2,62.6,488.4,23z"/>
<linearGradient id="SVGID_6_" gradientUnits="userSpaceOnUse" x1="384.601" y1="161.93" x2="482.479" y2="161.93" gradientTransform="matrix(1 0 0 -1 0 502)">
	<stop  offset="0" style="stop-color:#F51967"/>
	<stop  offset="1" style="stop-color:#7D1183"/>
</linearGradient>
<ellipse class="st12" cx="433.5" cy="340.1" rx="48.9" ry="48.8"/>
<linearGradient id="SVGID_7_" gradientUnits="userSpaceOnUse" x1="331.951" y1="62.398" x2="409.365" y2="62.398" gradientTransform="matrix(1 0 0 -1 0 502)">
	<stop  offset="0" style="stop-color:#981586"/>
	<stop  offset="1" style="stop-color:#181686"/>
</linearGradient>
<ellipse class="st13" cx="370.7" cy="439.6" rx="38.7" ry="38.6"/>
<linearGradient id="SVGID_8_" gradientUnits="userSpaceOnUse" x1="308.475" y1="147.976" x2="354.415" y2="147.976" gradientTransform="matrix(1 0 0 -1 0 502)">
	<stop  offset="0" style="stop-color:#69C3AC"/>
	<stop  offset="1" style="stop-color:#22A178"/>
</linearGradient>
<ellipse class="st14" cx="331.4" cy="354" rx="23" ry="22.9"/>
</svg>
