<?xml version="1.0" encoding="utf-8"?>
<!-- Generator: Adobe Illustrator 24.1.1, SVG Export Plug-In . SVG Version: 6.00 Build 0)  -->
<svg version="1.1" id="Layer_1" xmlns="http://www.w3.org/2000/svg" xmlns:xlink="http://www.w3.org/1999/xlink" x="0px" y="0px"
	 viewBox="0 0 466.7 466.6" style="enable-background:new 0 0 466.7 466.6;" xml:space="preserve">
<style type="text/css">
	.st0{opacity:0.99;fill:url(#SVGID_1_);stroke:#0E0E2A;stroke-width:0.5;stroke-miterlimit:10;enable-background:new    ;}
	.st1{opacity:0.99;fill:#0C0621;stroke:#0E0E2A;stroke-width:0.75;stroke-miterlimit:10;enable-background:new    ;}
	.st2{opacity:0.69;fill:url(#SVGID_2_);enable-background:new    ;}
	.st3{opacity:0.99;fill:url(#SVGID_3_);enable-background:new    ;}
	.st4{fill:#EF3278;}
	.st5{fill:url(#SVGID_4_);}
	.st6{fill:#F38076;}
	.st7{opacity:0.99;fill:#BEADAC;enable-background:new    ;}
	.st8{opacity:0.99;fill:#A799A0;enable-background:new    ;}
	.st9{fill:#F6D668;}
	.st10{opacity:0.99;fill:#0A072A;enable-background:new    ;}
	.st11{opacity:0.69;fill:url(#SVGID_5_);enable-background:new    ;}
	.st12{opacity:0.99;fill:url(#SVGID_6_);enable-background:new    ;}
	.st13{opacity:0.99;fill:url(#SVGID_7_);enable-background:new    ;}
	.st14{fill:none;}
	.st15{fill:#8A8A8A;}
	.st16{font-family:'Beta54';}
	.st17{font-size:72px;}
</style>
<linearGradient id="SVGID_1_" gradientUnits="userSpaceOnUse" x1="183.185" y1="316.1761" x2="433.4943" y2="316.1761" gradientTransform="matrix(1 0 0 1 -35.283 -91.76)">
	<stop  offset="0" style="stop-color:#241263"/>
	<stop  offset="1" style="stop-color:#130852"/>
</linearGradient>
<path class="st0" d="M390.2,159.8c-17.5,21.6-35.3,42.9-53,64.3c-11.2,13.6-22.4,27.1-33.7,40.7c-13.1,15.8-26,31.6-39.3,47.3
	c-1.8,2.1-3.7,4.2-5.6,6.2c-0.4,0.4-0.9,0.9-1.3,1.3c-0.1,0.1-0.2,0.2-0.4,0.3c0,0-0.1,0.1-0.1,0.1c-10.2,9.8-21.7,18-34.3,24.4
	c-3.3,1.7-6.6,3.3-9.9,4.9c-1.5-3.9-5.3-5.9-7.6-9.1l-1-1c-1.9-1.8-4.7-4.5-8.1-7.9c-4.2-4.1-7.7-7.6-18.6-18.5
	c-6.2-6.2-12.4-12.3-18.6-18.5c-3.4-3.6-6.7-7.3-10.8-10.1c12.2-27.4,32.3-48,55.4-66.5c40-32,79.2-65,118.7-97.6
	c0.9-0.7,1.9-1.4,2.8-2v0.1c6.3-5.3,12.1-11.2,19.6-14.9c18.5-9.1,40.8-1.5,49.9,17c1.1,2.2,1.9,4.5,2.6,6.8
	C399.9,139.1,397.9,150.2,390.2,159.8z"/>
<path class="st1" d="M256.8,320c-10.3,10.1-22.1,18.6-35,25.1c-3,1.6-6.1,3-9.1,4.5c-0.3,0.1-0.5,0.3-0.8,0.4
	c-1.5-3.9-5.3-5.9-7.6-9.1c0-0.2,0-0.4,0.1-0.6c0.1-0.2,0.1-0.5,0.2-0.5c0.1,0,0.1,0.1,0.2,0.2c0.1,0.1,0.1,0.1,0.2,0.2
	c2.3,3.3,6.1,5.2,7.6,9.1c3.3-1.6,6.6-3.2,9.9-4.9C235,338,246.6,329.8,256.8,320z"/>
<linearGradient id="SVGID_2_" gradientUnits="userSpaceOnUse" x1="373.165" y1="510.9065" x2="393.015" y2="510.9065" gradientTransform="matrix(1 0 0 1 -35.283 -91.76)">
	<stop  offset="0" style="stop-color:#EF1768"/>
	<stop  offset="1" style="stop-color:#7D117F"/>
</linearGradient>
<path class="st2" d="M357.7,420.4c-4.3,0-8.5-0.5-12.7-1.4c-2.4-0.5-4.7-0.9-7.1-1.1c0.2,0,0.3,0,0.5,0c2.5,0.3,4.9,0.6,7.4,1.2
	C349.7,419.9,353.7,420.4,357.7,420.4z"/>
<linearGradient id="SVGID_3_" gradientUnits="userSpaceOnUse" x1="92.9811" y1="530.1452" x2="195.9067" y2="443.7806" gradientTransform="matrix(1 0 0 1 -35.283 -91.76)">
	<stop  offset="0" style="stop-color:#F7F727"/>
	<stop  offset="1.600000e-02" style="stop-color:#F6F525"/>
	<stop  offset="8.100000e-02" style="stop-color:#F0F01F"/>
	<stop  offset="0.15" style="stop-color:#ECEE1C"/>
	<stop  offset="0.387" style="stop-color:#F57B1F"/>
	<stop  offset="0.732" style="stop-color:#F41717"/>
	<stop  offset="1" style="stop-color:#AE0B0B"/>
</linearGradient>
<path class="st3" d="M180.4,391c0,13.2-3.6,25.4-12.4,35.6c-11.6,13.4-25.8,22.3-43.4,25.5c-1.6,0.3-3.5-0.4-5,1H101
	c-2.8-1.5-6.2-0.5-9-2.2c-7.1-1.1-13.7-3.8-20.1-7c-5.2-2.6-10.3-5.4-14.6-9.3c-4.3-3.5-9.6-6.1-11.6-11.9c2.3-1.4,5.4-2,5.4-5.7
	c3.9-3,7.4-6.4,10.5-10.3c2.4-4.1,1.7-8.3,1.1-12.7c-1.8-12.6-2.3-25.2,3.1-37.2c7.9-17.5,21.5-27.5,40.5-30.4
	c7.9-1.2,15.6-0.4,23.2,1.4c3.7,3.2,7.2,6.6,10.4,10.2l18.8,18.7c1.4,1.4,2.8,2.8,4.1,4.2l0.7,0.9l0-0.1c1.6,1.4,3.2,2.8,4.8,4.2
	c1,1.1,2.1,2.2,3.1,3.3l5.6,2.3C179.1,377.7,180.3,384.3,180.4,391z"/>
<path class="st4" d="M159.4,230.3h-0.6C159,230.3,159.2,230.3,159.4,230.3z"/>
<linearGradient id="SVGID_4_" gradientUnits="userSpaceOnUse" x1="194.082" y1="322.0518" x2="194.66" y2="322.0518" gradientTransform="matrix(1 0 0 1 -35.283 -91.76)">
	<stop  offset="0" style="stop-color:#F10E56"/>
	<stop  offset="1" style="stop-color:#76127D"/>
</linearGradient>
<path class="st5" d="M159.4,230.3h-0.6C159,230.3,159.2,230.3,159.4,230.3z"/>
<polygon class="st6" points="159.4,230.3 159.4,230.3 159.4,230.3 "/>
<path class="st7" d="M181.8,359c-4.3,2.6-9,4.6-13.5,6.9c-1.6-1.4-3.2-2.8-4.8-4.2l0,0.1l-0.7-0.9c-1.4-1.4-2.8-2.8-4.1-4.2
	c-6.3-6.2-12.5-12.5-18.8-18.7c-3.2-3.7-6.7-7.1-10.4-10.2c-1.8-3.7-3.8-7.2-3.5-11.6c0.3-4.4,2.7-7.7,4.2-11.5
	c1.7-4.5,4.2-8.6,6-13.1c2.2-5.4,6-7.9,11.8-7.3c4.1,2.8,7.4,6.6,10.8,10.1v0c-0.4,1.1-0.7,2.2-0.8,3.3c-0.1,6.2-0.2,12.4,0.1,18.7
	c0.1,3,1.4,5.9,3.6,7.9c7.3,7.1,14.4,14.3,21.6,21.5C187.2,350,186.8,356.1,181.8,359z"/>
<path class="st8" d="M212.8,351.2c0.1,1.4-0.1,2.7-0.6,4c-0.2,0.4-0.4,0.8-0.6,1.1c-0.1,0.2-0.2,0.3-0.3,0.5c-1.6,2-3.7,3.5-6.1,4.3
	c-5.4,2.1-10.6,4.9-15.9,7.5c-3.9,1.9-7.9,3.2-12.3,2.8l-5.6-2.3c-1-1.1-2.1-2.2-3.1-3.3c4.5-2.3,9.2-4.3,13.5-6.8
	c5-3,5.5-9,1.3-13.2c-7.1-7.2-14.3-14.4-21.6-21.5c-2.2-2.1-3.5-4.9-3.6-7.9c-0.3-6.2-0.1-12.4,0-18.7c0.1-1.1,0.4-2.3,0.8-3.3
	l18.6,18.5c6.2,6.2,12.4,12.3,18.6,18.5c2.9,2.9,5.8,5.6,8.8,8.5c0.1,0.1,0.3,0.3,0.4,0.4c2.3,3.3,6.1,5.2,7.6,9.1
	c0,0.1,0,0.2,0,0.3c0,0.1,0,0.3,0.1,0.4c0,0.3,0.1,0.5,0.1,0.8C212.8,351,212.8,351.1,212.8,351.2z"/>
<path class="st9" d="M45.7,460.9c0.1,3.6-3,4.3-5.4,5.7C40.5,463.2,43.2,462.2,45.7,460.9z"/>
<path class="st10" d="M391.5,115.7L251.2,269.2l-34.2,6l-58.3,19.2l54,55.7c25.2-12.7,47.1-30.9,64.3-53.3l113.2-137
	C390.2,159.8,407.7,143.7,391.5,115.7z"/>
<linearGradient id="SVGID_5_" gradientUnits="userSpaceOnUse" x1="380.747" y1="424.304" x2="450.067" y2="424.304" gradientTransform="matrix(1 0 0 1 -33.333 -92.01)">
	<stop  offset="0" style="stop-color:#EF1768"/>
	<stop  offset="1" style="stop-color:#7D117F"/>
</linearGradient>
<ellipse class="st11" cx="382.1" cy="332.3" rx="34.7" ry="34.6"/>
<linearGradient id="SVGID_6_" gradientUnits="userSpaceOnUse" x1="314.091" y1="502.687" x2="368.917" y2="502.687" gradientTransform="matrix(1 0 0 1 -33.333 -92.01)">
	<stop  offset="0" style="stop-color:#981581"/>
	<stop  offset="1" style="stop-color:#1E1581"/>
</linearGradient>
<ellipse class="st12" cx="308.2" cy="410.7" rx="27.4" ry="27.4"/>
<linearGradient id="SVGID_7_" gradientUnits="userSpaceOnUse" x1="297.464" y1="442.079" x2="330" y2="442.079" gradientTransform="matrix(1 0 0 1 -33.333 -92.01)">
	<stop  offset="0" style="stop-color:#69C1AB"/>
	<stop  offset="1" style="stop-color:#1C9B76"/>
</linearGradient>
<ellipse class="st13" cx="280.4" cy="350.1" rx="16.3" ry="16.2"/>
<rect y="19" class="st14" width="466.7" height="85"/>
<text transform="matrix(1 0 0 1 33.769 80.0557)" class="st15 st16 st17">Upload Photo</text>
</svg>
