<svg xmlns="http://www.w3.org/2000/svg" viewBox="0 0 500 372.609"><defs><style>.a{fill:#ebebeb;}.b{fill:#f5f5f5;}.c{fill:#e0e0e0;}.d{fill:#e6e6e6;}.e{fill:#f0f0f0;}.f{fill:#fafafa;}.g{fill:#2e353a;}.h,.j,.l,.m,.p{fill:#fff;}.h,.i{opacity:0.2;}.h,.i,.j,.l,.m,.o,.p,.q{isolation:isolate;}.j{opacity:0.4;}.k{fill:#407bff;}.l{opacity:0.8;}.m,.o,.q{opacity:0.1;}.n{fill:#e4897b;}.p{opacity:0.6;}.r{fill:none;stroke:#2e353a;stroke-linecap:round;stroke-linejoin:round;stroke-width:0.5px;}.s{fill:#263238;}</style></defs><rect class="a" y="327.446" width="500" height="0.25"/><rect class="a" x="416.779" y="343.542" width="33.122" height="0.25"/><rect class="a" x="322.527" y="346.255" width="8.693" height="0.25"/><rect class="a" x="396.586" y="334.256" width="19.192" height="0.25"/><rect class="a" x="52.459" y="335.936" width="43.193" height="0.25"/><rect class="a" x="104.556" y="335.936" width="6.333" height="0.25"/><rect class="a" x="131.471" y="340.158" width="93.676" height="0.25"/><path class="a" d="M237.014,337.8H43.915a5.715,5.715,0,0,1-5.708-5.708V60.66a5.714,5.714,0,0,1,5.708-5.707h193.1a5.714,5.714,0,0,1,5.707,5.707V332.092A5.715,5.715,0,0,1,237.014,337.8ZM43.915,55.2a5.463,5.463,0,0,0-5.458,5.457V332.092a5.464,5.464,0,0,0,5.458,5.458h193.1a5.463,5.463,0,0,0,5.457-5.458V60.66a5.463,5.463,0,0,0-5.457-5.457Z" transform="translate(0 -54.953)"/><path class="a" d="M453.31,337.8h-193.1a5.714,5.714,0,0,1-5.707-5.708V60.66a5.713,5.713,0,0,1,5.707-5.707h193.1a5.714,5.714,0,0,1,5.709,5.707V332.092A5.715,5.715,0,0,1,453.31,337.8ZM260.212,55.2a5.463,5.463,0,0,0-5.457,5.457V332.092a5.463,5.463,0,0,0,5.457,5.458h193.1a5.464,5.464,0,0,0,5.459-5.458V60.66A5.464,5.464,0,0,0,453.31,55.2Z" transform="translate(0 -54.953)"/><rect class="b" x="198.667" y="34.047" width="106.833" height="141.022"/><polygon class="a" points="235 49.047 235 111.047 259.7 109.659 262.536 49.047 235 49.047"/><polygon class="c" points="255 61.047 293 61.047 292.666 115.319 272.987 115.626 255 61.047"/><polygon class="d" points="218 53.047 228 53.047 224.5 101.468 212 104.559 218 53.047"/><rect class="c" x="60.333" y="11.448" width="106.504" height="129.595"/><polygon class="a" points="134.47 29.547 78.5 84.556 139.052 94.547 134.47 29.547"/><polygon class="e" points="110.889 76.495 112.07 118.751 153 104.468 153 72.047 110.889 76.495"/><circle class="d" cx="91.068" cy="167.364" r="17.012" transform="translate(-91.671 58.462) rotate(-45)"/><circle class="b" cx="136.75" cy="49.797" r="8.25"/><polygon class="b" points="87.064 27.047 110.889 41.547 90.861 58.047 87.064 27.047"/><rect class="d" x="325.333" y="72.4" width="106.504" height="129.595" transform="translate(757.171 219.443) rotate(180)"/><polygon class="c" points="349.701 114.943 405.671 59.935 345.118 49.943 349.701 114.943"/><polygon class="e" points="404.318 101.903 407.089 59.721 364.95 70.071 361.89 102.347 404.318 101.903"/><circle class="f" cx="349.192" cy="42.547" r="17.012"/><circle class="c" cx="407.065" cy="116.943" r="8.25"/><polygon class="b" points="405.107 131.443 381.282 116.943 401.309 100.443 405.107 131.443"/><rect class="c" x="372.284" y="33.933" width="4.683" height="103.483"/><rect class="a" x="415.778" y="33.933" width="6.058" height="98.905"/><rect class="a" x="336.024" y="102.347" width="30.957" height="30.957"/><ellipse class="b" cx="250" cy="361.285" rx="193.889" ry="11.323"/><polygon class="g" points="258.02 358.047 251.53 358.047 232.33 267.697 219.6 207.827 218.91 272.787 218 358.047 211 358.047 211 209.477 195.96 281.487 179.97 358.047 173.48 358.047 188.3 284.397 211.5 169.047 220 169.047 239.31 265.047 258.02 358.047"/><polygon class="h" points="258.02 358.047 251.53 358.047 232.33 267.697 219.6 207.827 218.91 272.787 218 358.047 211 358.047 211 209.477 195.96 281.487 179.97 358.047 173.48 358.047 188.3 284.397 211.5 169.047 220 169.047 239.31 265.047 258.02 358.047"/><polygon class="i" points="239.31 265.047 232.33 267.697 219.6 207.827 218.91 272.787 211 275.787 211 209.477 195.96 281.487 188.3 284.397 211.5 169.047 220 169.047 239.31 265.047"/><polygon class="g" points="301.024 246.534 187.976 246.534 166.837 88.118 279.885 88.118 301.024 246.534"/><polygon class="j" points="301.024 246.534 187.976 246.534 166.837 88.118 279.885 88.118 301.024 246.534"/><polygon class="k" points="302.025 241.531 195 241.531 174.987 91.556 282.012 91.556 302.025 241.531"/><polygon class="l" points="302.025 241.531 195 241.531 174.987 91.556 282.012 91.556 302.025 241.531"/><polygon class="k" points="264.25 173.381 209.805 237.047 290 237.047 264.25 173.381"/><polyline class="h" points="245.71 195.061 261.667 215.697 257.333 225.047 246 215.48 245.71 193.652"/><polygon class="m" points="266.7 179.439 257.333 237.047 237.028 205.214 245.71 174.515 266.7 179.439"/><path class="k" d="M252.22,248.14c-11.49,4.19-26.18.6-35.92-9.27C197.67,220,191,172.33,222,165c20.46-4.84,37.7,7.32,44.51,32.46a92.35,92.35,0,0,1,2.93,18.66C270.5,234.04,262.7,244.33,252.22,248.14Z" transform="translate(0 -54.953)"/><polygon class="k" points="197.667 173.515 215.333 143.415 224.931 176.928 197.667 173.515"/><path class="k" d="M228,200.367s6.667-12.786,21,2.09C249,202.457,236.333,215.4,228,200.367Z" transform="translate(0 -54.953)"/><polygon class="k" points="246 131.047 217 131.047 218.667 137.339 246 131.047"/><polygon class="k" points="207 134.193 215.333 143.415 204.479 164.117 196 137.339 207 134.193"/><path class="h" d="M265.97,235.94c-9.39,18.42-35.08,17.71-49.67,2.93C197.67,220,191,172.33,222,165c21.53-5.1,39.49,8.64,45.5,36.51,0,0-17.17,18.25-15.5,31.37L253.67,246A26.473,26.473,0,0,0,265.97,235.94Z" transform="translate(0 -54.953)"/><polygon class="h" points="197.667 173.515 215.333 143.415 224.931 176.928 197.667 173.515"/><polygon class="h" points="246 131.047 217 131.047 218.667 137.339 246 131.047"/><polygon class="k" points="207 134.193 215.333 143.415 204.479 164.117 196 137.339 207 134.193"/><path class="k" d="M217,246l7.931-10.126,6.569,1.9,5.5-6.729,15,1.837S252.667,254.667,217,246Z" transform="translate(0 -54.953)"/><path class="h" d="M217,246l35-13.119S247.242,252,217,246Z" transform="translate(0 -54.953)"/><polygon class="k" points="240.333 137.339 231.5 147.505 240.333 155.39 246 147.505 240.333 137.339"/><path class="h" d="M228,200.367s6.667-12.786,21,2.09C249,202.457,236.333,215.4,228,200.367Z" transform="translate(0 -54.953)"/><path class="k" d="M207,174.611s-9-10.278-9.332-17.278,45.245-5.666,59.666,0c0,0-4.666,11.877,0,22.939C257.333,180.272,233,166.556,207,174.611Z" transform="translate(0 -54.953)"/><path class="k" d="M259.471,207.637s16.2-10.9,19.2-7.27,5.666,20.857,2.333,21.912-19.667-4.5-19.667-4.5Z" transform="translate(0 -54.953)"/><polygon class="h" points="275.505 158.825 273.438 170.515 282.543 172.091 286.997 164.59 275.505 158.825"/><path class="m" d="M252.22,248.14c-.07-.26-.14-.52-.21-.79-7.5-29.52,6.87-44.34,14.5-49.89a92.35,92.35,0,0,1,2.93,18.66C270.5,234.04,262.7,244.33,252.22,248.14Z" transform="translate(0 -54.953)"/><path class="k" d="M133.8,357.33c-3.24-5.37-5.66-9.77-5.08-12.25,1.72-7.43,8.28-9.58,10.17-20.92,1.86-11.17-12.87-24.75-13.32-25.16l-.01-.01S147,259,135.5,242.49c-.35-.5-.69-.99-1.03-1.46-10.75-15.26-15.14-18.62-15.14-18.62l6.23-12.56-2.96-2.77-5.95-5.57-8.15,10.25,2.97,6.94,1.53,3.58S95.5,240,95.06,253.41s10.27,34.67,10.27,34.67-10.6,12.16-15.66,21.82c-2.59,4.98-3.72,9.29-1.17,10.93,6.01,3.86,12.66,15.13,10.21,30.09a46.566,46.566,0,0,1-3.65,11.74c-5.43,11.88-4.62,20.74-2.94,26.11a19.12,19.12,0,0,0,2.94,6.06L146,393.49C149.99,382.51,140.26,368,133.8,357.33Zm-17.15-129.4s13.52,12.72,14.68,22.15a19.44,19.44,0,0,1-.12,5.02c-1.24,9.28-7.22,20.83-7.22,20.83l.02-5.85.04-9.4-7.4-12.08-7.15,14,2,13.33s-5.83-7.07-6.17-20S116.65,227.93,116.65,227.93Z" transform="translate(0 -54.953)"/><path class="h" d="M133.8,357.33c-3.24-5.37-5.66-9.77-5.08-12.25,1.72-7.43,8.28-9.58,10.17-20.92,1.86-11.17-12.87-24.75-13.32-25.16l-.01-.01S147,259,135.5,242.49c-.35-.5-.69-.99-1.03-1.46-10.75-15.26-15.14-18.62-15.14-18.62l6.23-12.56-2.96-2.77-5.95-5.57-8.15,10.25,2.97,6.94,1.53,3.58S95.5,240,95.06,253.41s10.27,34.67,10.27,34.67-10.6,12.16-15.66,21.82c-2.59,4.98-3.72,9.29-1.17,10.93,6.01,3.86,12.66,15.13,10.21,30.09a46.566,46.566,0,0,1-3.65,11.74c-5.43,11.88-4.62,20.74-2.94,26.11a19.12,19.12,0,0,0,2.94,6.06L146,393.49C149.99,382.51,140.26,368,133.8,357.33Zm-17.15-129.4s13.52,12.72,14.68,22.15a19.44,19.44,0,0,1-.12,5.02c-1.24,9.28-7.22,20.83-7.22,20.83l.02-5.85.04-9.4-7.4-12.08-7.15,14,2,13.33s-5.83-7.07-6.17-20S116.65,227.93,116.65,227.93Z" transform="translate(0 -54.953)"/><path class="i" d="M131.21,255.1a19.44,19.44,0,0,0,.12-5.02c-1.16-9.43-14.68-22.15-14.68-22.15S105,243,105.33,255.93s6.17,20,6.17,20l-2-13.33,7.15-14,7.4,12.08-.04,9.4c-13.3,22.45-34.33,39.83-34.33,39.83l-.01-.01c5.06-9.66,15.66-21.82,15.66-21.82s-10.72-21.26-10.27-34.67S113,222.28,113,222.28l-1.53-3.58c4.26-4.57,8.13-8.57,11.13-11.62l2.96,2.77-6.23,12.56s4.39,3.36,15.14,18.62A56.287,56.287,0,0,1,131.21,255.1Z" transform="translate(0 -54.953)"/><path class="i" d="M128.72,345.08c-.58,2.48,1.84,6.88,5.08,12.25a79.432,79.432,0,0,1-5.08,6.75c-13.81,16.59-26.97,23.36-36.6,24.69-1.68-5.37-2.49-14.23,2.94-26.11a46.566,46.566,0,0,0,3.65-11.74c13.59-22.48,26.85-51.93,26.85-51.93l.01.01c.45.41,15.18,13.99,13.32,25.16C137,335.5,130.44,337.65,128.72,345.08Z" transform="translate(0 -54.953)"/><rect class="g" x="81.333" y="335.408" width="76" height="22.389"/><rect class="h" x="105.333" y="335.408" width="52" height="22.389"/><path class="n" d="M409.667,246s6.808,22.018-1.679,23.926S402.333,246,402.333,246Z" transform="translate(0 -54.953)"/><path class="o" d="M409.667,246s6.808,22.018-1.679,23.926S402.333,246,402.333,246Z" transform="translate(0 -54.953)"/><path class="k" d="M382.642,232.072c.7-8.8,8.7-16.547,17.139-18.279,9.113-1.871,17.656,4.978,20.828,13.164,3.178,8.2.491,24.451-11.67,21.232-4.656-1.233-8.233-4.5-13-5.713-4.128-1.052-8.895-1.574-11.738-5.149A7.242,7.242,0,0,1,382.642,232.072Z" transform="translate(0 -54.953)"/><path class="p" d="M420.609,226.957c-3.172-8.186-11.715-15.035-20.828-13.164-8.436,1.732-16.437,9.479-17.139,18.279a7.242,7.242,0,0,0,1.56,5.255c2.843,3.575,7.61,4.1,11.738,5.149,4.766,1.215,8.343,4.48,13,5.713C421.1,251.408,423.787,235.159,420.609,226.957Zm-19.788-6.471c-.538-1.955,4.257-4.076,6.268-1.557S402.617,227.007,400.821,220.486Zm7.723,4.5c.467-1.973,5.692-1.529,6.245,1.647S406.985,231.567,408.544,224.985Zm2.49,8.488c1.106-1.7,5.873.486,5.32,3.662S407.341,239.14,411.034,233.473Z" transform="translate(0 -54.953)"/><path class="h" d="M408.544,224.985c.467-1.973,5.692-1.529,6.245,1.647S406.985,231.567,408.544,224.985Z" transform="translate(0 -54.953)"/><path class="j" d="M411.033,233.473c1.107-1.7,5.874.486,5.321,3.662S407.341,239.14,411.033,233.473Z" transform="translate(0 -54.953)"/><path class="n" d="M395.448,224.258C399,227,410.372,258,411.186,263.5s-2.521,10.5-8.854,3.5-16-26.333-16-26.333Z" transform="translate(0 -54.953)"/><path class="n" d="M285,379l4.75,2.25s31.023-75,36.023-75.206,55.91,23.19,68.67,10.21-5.69-44.24-5.69-44.24-30.69-4.38-33,2.55a48.607,48.607,0,0,0-1.3,6.22c-.35,2.12-.59,3.9-.59,3.9a.031.031,0,0,1-.02-.01c-.95-.24-27.76-8.19-39.9.01C301.613,293.024,285,379,285,379Z" transform="translate(0 -54.953)"/><path class="n" d="M372.4,319.375s-33.792-1.875-45.269,4.549c0,0,5.811,49.246,8.435,79.373l-5.626.641s-24-80.514-23.75-90.764,19-11.25,19-11.25S348.127,315.174,372.4,319.375Z" transform="translate(0 -54.953)"/><g class="q"><path d="M372.4,319.375s-33.792-1.875-45.269,4.549c0,0,5.811,49.246,8.435,79.373l-5.626.641s-24-80.514-23.75-90.764,19-11.25,19-11.25S348.127,315.174,372.4,319.375Z" transform="translate(0 -54.953)"/></g><polygon class="k" points="337.803 253.281 347.569 267.047 372.403 264.423 337.803 253.281"/><polygon class="j" points="337.803 253.281 347.569 267.047 372.403 264.423 337.803 253.281"/><path class="g" d="M337.1,401.367c-.027-.746-9.181-.051-9.181-.051s-5.567,5.8-11.027,7.154-2.36,4.6,3.759,4.529l15.137-.182C340.135,412.765,337.373,409.094,337.1,401.367Z" transform="translate(0 -54.953)"/><path class="k" d="M323.1,403.719a1.241,1.241,0,0,1-.78-.21.881.881,0,0,1-.233-.975.984.984,0,0,1,.482-.626,3.753,3.753,0,0,1,2.051-.249c-.749-.388-1.408-.863-1.441-1.344-.022-.314.177-.576.593-.778a1.407,1.407,0,0,1,1.184-.047c1.243.5,2.037,2.457,2.077,2.567.012.031.017-.057.015-.057H327v.157c0,.026.014-.1,0-.075h0c-.01.024-.012-.082-.028-.082h.005c-.021,0-.044.272-.075.287C326.424,402.524,324.374,403.719,323.1,403.719Zm.855-1.609a2.38,2.38,0,0,0-1.141.214.513.513,0,0,0-.258.323c-.087.362.029.455.066.485.439.347,2.109-.176,3.452-.763A11.078,11.078,0,0,0,323.951,402.11Zm.46-2.245a.965.965,0,0,0-.431.106c-.125.061-.332.181-.323.31.028.412,1.346,1.109,2.709,1.608a3.985,3.985,0,0,0-1.595-1.95A.954.954,0,0,0,324.411,399.865Z" transform="translate(0 -54.953)"/><path class="g" d="M292.279,378.552c.158-.729-8.887-2.306-8.887-2.306s-6.821,4.255-12.446,4.225-3.419,3.882,2.53,5.314l14.717,3.544C292.421,390.346,290.646,386.109,292.279,378.552Z" transform="translate(0 -54.953)"/><path class="k" d="M279.233,377.5a2.362,2.362,0,0,1-1.81-.508.88.88,0,0,1,.012-1,.987.987,0,0,1,.622-.488,3.8,3.8,0,0,1,2.049.263c-.63-.561-1.152-1.184-1.066-1.659.056-.308.314-.513.766-.607a1.083,1.083,0,0,1,1,.246c1.088.793,1.19,3.053,1.19,3.149v.1h.31v-.048h0V377H282v0h0v-.02c0,.041.132.012.107.043s.049-.023.032-.023h.038c-.027,0-.04.093-.076.1A14.223,14.223,0,0,1,279.233,377.5Zm-.681-1.578a1.29,1.29,0,0,0-.36.045.51.51,0,0,0-.329.249c-.173.329-.084.446-.054.485.336.445,2.087.348,3.532.11A7.773,7.773,0,0,0,278.552,375.924Zm1.575-1.973a1.076,1.076,0,0,0-.222.024c-.136.028-.367.094-.39.22-.073.407,1.033,1.406,2.232,2.225a3.992,3.992,0,0,0-1.067-2.282A.915.915,0,0,0,280.127,373.951Z" transform="translate(0 -54.953)"/><path class="k" d="M331.389,279.96S329,301,333.5,309.25c0,0,20.342,10.75,41.171,11.75s36.335-7.721,14.082-48.986c0,0-6.457-5.014-17.48-5.014s-15.52,7.564-15.52,7.564l-3.874,7.686Z" transform="translate(0 -54.953)"/><path class="p" d="M331.389,279.96S329,301,333.5,309.25c0,0,20.342,10.75,41.171,11.75s36.335-7.721,14.082-48.986c0,0-6.457-5.014-17.48-5.014s-15.52,7.564-15.52,7.564l-3.874,7.686Z" transform="translate(0 -54.953)"/><path class="r" d="M356.657,185.932s-4.157-.053-5.157-5.368,3.9-6.432,5.157-5.79" transform="translate(0 -54.953)"/><path class="n" d="M366.9,210.265a11.861,11.861,0,0,1-3.39.735h-.01c-2.36,0-4.22-.315-5.68-1.405-3.3-2.47-4.5-7.923-4.59-14.663-.14-8.8,2.21-13.583,10.7-14.313C378.04,179.409,381.05,205.855,366.9,210.265Z" transform="translate(0 -54.953)"/><path class="i" d="M370.53,206.2A17.057,17.057,0,0,1,363.51,211h-.01c-2.36,0-4.22-.3-5.68-1.392C362.1,206.127,370.53,206.2,370.53,206.2Z" transform="translate(0 -54.953)"/><path class="g" d="M358.208,185.208s-4.333,8.816,3.05,13.784c0,0,5.059,8.4,13.213,7.264s12.984-13.851,7.6-24.923c-5.105-10.5-22.491-4.688-22.491-4.688-7.421-3.363-10.432,6.272-4.924,9.287A5.775,5.775,0,0,1,358.208,185.208Z" transform="translate(0 -54.953)"/><path class="k" d="M365.417,198.667c-2.434-2.493-9.755-13.294-5.836-22.022,0,0,6.919-2.812,11.834-1.541,0,0-6.135,20.565,7.115,29.148A18.678,18.678,0,0,1,365.417,198.667Z" transform="translate(0 -54.953)"/><path class="k" d="M377.417,203.833s5-4.166,8.916,2c0,0-4.166,1.571-7.416-.548,0,0,1.166,1.817.333,5.057C379.25,210.342,375.75,209.083,377.417,203.833Z" transform="translate(0 -54.953)"/><path class="r" d="M361.219,197.528s.123,5.139,3.458,7.972" transform="translate(0 -54.953)"/><path class="n" d="M358.289,196.4c-.1-1.537,1.059-4.233,3.642-4.1,2.673.137,4.539,6.109-1.884,8.026C359.125,200.6,358.491,199.606,358.289,196.4Z" transform="translate(0 -54.953)"/><path class="g" d="M376.967,183.083a8.727,8.727,0,0,1,8.366-7c7.167-.25,6,6.334,8,7.75s3.25.334,4.75,2.417-.833,4.5-.75,6.583,2.667,2.5,2.667,5.334-3,3.083-4.083,6.5.916,3.685.916,5.675-.666,3.241-3.166,3.158c0,0,2.064-1.168.7-2.5s-4.9-2.582-5.883-5.249,3.434-5.583-.65-8.417-6.25-.916-7.75-6.5S376.967,183.083,376.967,183.083Z" transform="translate(0 -54.953)"/><path class="n" d="M366.166,224.384c6.194.759,9.765-6.08,9.765-6.08-5.845-4.024-2.348-12.109-2.348-12.109-5.662-2.356-9.946,2.394-9.946,2.394a28.954,28.954,0,0,1,1.008,4.015c.982,5.862-1.666,6.33-1.666,6.33A3.993,3.993,0,0,0,366.166,224.384Z" transform="translate(0 -54.953)"/><path class="k" d="M388.753,272.014s.7-33,6.695-47.756a80.651,80.651,0,0,0-16.918-7.425c-11.081-3.355-24.8-5.028-28.981-3.329,0,0-2.861,37.977,6.2,61.06C355.753,274.564,367.822,274.258,388.753,272.014Z" transform="translate(0 -54.953)"/><path class="i" d="M388.753,272.014s.7-33,6.695-47.756a80.651,80.651,0,0,0-16.918-7.425c-11.081-3.355-24.8-5.028-28.981-3.329,0,0-2.861,37.977,6.2,61.06C355.753,274.564,367.822,274.258,388.753,272.014Z" transform="translate(0 -54.953)"/><path class="g" d="M302,190.11c-1.3-1.648-28.848,9.05-28.848,9.05l.286.653S303,191.376,302,190.11Z" transform="translate(0 -54.953)"/><path class="k" d="M273.152,199.16a4.873,4.873,0,0,0-2.464,0,2.108,2.108,0,0,1-2.438-1.35s1.125,5.378,5.188,2Z" transform="translate(0 -54.953)"/><path class="n" d="M352.881,213.5c-6.465-3.346-29.44,13.163-34.381,12.663-7.528-.762-19.393-25.8-19.393-25.8L294,202.457s9.168,31.71,20.667,34.876c9.107,2.508,34.52-6.5,34.509-7.332C349.176,230,360.49,217.442,352.881,213.5Z" transform="translate(0 -54.953)"/><path class="n" d="M299.666,201.514s-2.833-8.279-4.166-10.813-8.333,3.791-8.5,5.628,7.167,9.5,8.667,9.171S299.666,201.514,299.666,201.514Z" transform="translate(0 -54.953)"/><polygon class="s" points="365.403 272.047 365.763 287.617 367.403 358.047 372.813 358.047 374.443 287.617 374.803 272.047 365.403 272.047"/><polygon class="m" points="365.403 272.047 365.763 287.617 367.403 358.047 372.813 358.047 374.443 287.617 374.803 272.047 365.403 272.047"/><polygon class="i" points="365.403 272.047 365.763 288.047 374.443 288.047 374.803 272.047 365.403 272.047"/><polygon class="s" points="336.024 357.797 341.022 273.148 349.192 273.148 342.195 357.797 336.024 357.797"/><polygon class="h" points="342.21 357.797 336.034 357.797 340.569 280.747 341.019 273.047 349.189 273.047 348.559 280.747 342.21 357.797"/><polygon class="i" points="349.189 273.047 348.559 281.047 340.569 281.047 341.019 273.047 349.189 273.047"/><polygon class="s" points="398.016 357.797 391.019 273.148 399.189 273.148 404.186 357.797 398.016 357.797"/><polygon class="h" points="398.001 357.797 391.652 280.747 391.022 273.047 399.192 273.047 399.642 280.747 404.177 357.797 398.001 357.797"/><polygon class="i" points="391.022 273.047 391.652 281.047 399.642 281.047 399.192 273.047 391.022 273.047"/><path class="k" d="M336.645,319.333h66.921a0,0,0,0,1,0,0v6.689a5,5,0,0,1-5,5H341.645a5,5,0,0,1-5-5v-6.689A0,0,0,0,1,336.645,319.333Z" transform="translate(740.211 595.403) rotate(180)"/><rect class="s" x="333.439" y="325.178" width="73.333" height="5.845" rx="2.011" transform="translate(740.211 601.248) rotate(180)"/><rect class="j" x="333.439" y="325.178" width="73.333" height="5.845" rx="2.011" transform="translate(740.211 601.248) rotate(180)"/><path class="g" d="M353.867,278.307s-1.911-1.662,1.236-5.484,30.793-7.27,40.345-2.8l-.116,7.224s14.282,31,15.975,62.25c0,0-7.307,3.25-14.807,0s-22.9,6.267-31.823,4.133c0,0,6.344-42.563-.5-57.383C364.175,286.25,360.233,277.863,353.867,278.307Z" transform="translate(0 -54.953)"/><path class="g" d="M355.3,273.915s-8.928,1.085-8.678,10.21,8.625,16,6.5,22.375c0,0,5.375,1.612,8.125-.569,0,0,3.75-7.556-2-13.681s-9.794-12.66-3.147-15.08Z" transform="translate(0 -54.953)"/></svg>