<svg id="visual" viewBox="0 0 960 540" width="960" height="540" xmlns="http://www.w3.org/2000/svg" xmlns:xlink="http://www.w3.org/1999/xlink" version="1.1"><rect x="0" y="0" width="960" height="540" fill="#001220"></rect><defs><linearGradient id="grad1_0" x1="43.8%" y1="0%" x2="100%" y2="100%"><stop offset="14.444444444444446%" stop-color="#fbae3c" stop-opacity="1"></stop><stop offset="85.55555555555554%" stop-color="#fbae3c" stop-opacity="1"></stop></linearGradient></defs><defs><linearGradient id="grad1_1" x1="43.8%" y1="0%" x2="100%" y2="100%"><stop offset="14.444444444444446%" stop-color="#fbae3c" stop-opacity="1"></stop><stop offset="85.55555555555554%" stop-color="#96446e" stop-opacity="1"></stop></linearGradient></defs><defs><linearGradient id="grad1_2" x1="43.8%" y1="0%" x2="100%" y2="100%"><stop offset="14.444444444444446%" stop-color="#001220" stop-opacity="1"></stop><stop offset="85.55555555555554%" stop-color="#96446e" stop-opacity="1"></stop></linearGradient></defs><defs><linearGradient id="grad2_0" x1="0%" y1="0%" x2="56.3%" y2="100%"><stop offset="14.444444444444446%" stop-color="#fbae3c" stop-opacity="1"></stop><stop offset="85.55555555555554%" stop-color="#fbae3c" stop-opacity="1"></stop></linearGradient></defs><defs><linearGradient id="grad2_1" x1="0%" y1="0%" x2="56.3%" y2="100%"><stop offset="14.444444444444446%" stop-color="#96446e" stop-opacity="1"></stop><stop offset="85.55555555555554%" stop-color="#fbae3c" stop-opacity="1"></stop></linearGradient></defs><defs><linearGradient id="grad2_2" x1="0%" y1="0%" x2="56.3%" y2="100%"><stop offset="14.444444444444446%" stop-color="#96446e" stop-opacity="1"></stop><stop offset="85.55555555555554%" stop-color="#001220" stop-opacity="1"></stop></linearGradient></defs><g transform="translate(960, 0)"><path d="M0 378C-40.2 375.8 -80.4 373.6 -116.8 359.5C-153.2 345.4 -185.8 319.5 -209.8 288.8C-233.9 258.2 -249.3 222.8 -262.9 191C-276.5 159.3 -288.3 131.1 -307.2 99.8C-326.1 68.6 -352 34.3 -378 0L0 0Z" fill="#3d3056"></path><path d="M0 252C-26.8 250.5 -53.6 249.1 -77.9 239.7C-102.1 230.3 -123.9 213 -139.9 192.5C-155.9 172.1 -166.2 148.5 -175.3 127.4C-184.4 106.2 -192.2 87.4 -204.8 66.5C-217.4 45.7 -234.7 22.9 -252 0L0 0Z" fill="#e1685e"></path><path d="M0 126C-13.4 125.3 -26.8 124.5 -38.9 119.8C-51.1 115.1 -61.9 106.5 -69.9 96.3C-78 86.1 -83.1 74.3 -87.6 63.7C-92.2 53.1 -96.1 43.7 -102.4 33.3C-108.7 22.9 -117.3 11.4 -126 0L0 0Z" fill="#fbae3c"></path></g><g transform="translate(0, 540)"><path d="M0 -378C40.1 -370.9 80.2 -363.7 111.6 -343.3C143 -322.9 165.7 -289.2 192.8 -265.4C219.9 -241.5 251.4 -227.4 282.3 -205.1C313.3 -182.9 343.7 -152.4 359.5 -116.8C375.3 -81.3 376.7 -40.6 378 0L0 0Z" fill="#3d3056"></path><path d="M0 -252C26.7 -247.2 53.4 -242.5 74.4 -228.9C95.3 -215.3 110.5 -192.8 128.5 -176.9C146.6 -161 167.6 -151.6 188.2 -136.8C208.9 -121.9 229.1 -101.6 239.7 -77.9C250.2 -54.2 251.1 -27.1 252 0L0 0Z" fill="#e1685e"></path><path d="M0 -126C13.4 -123.6 26.7 -121.2 37.2 -114.4C47.7 -107.6 55.2 -96.4 64.3 -88.5C73.3 -80.5 83.8 -75.8 94.1 -68.4C104.4 -61 114.6 -50.8 119.8 -38.9C125.1 -27.1 125.6 -13.5 126 0L0 0Z" fill="#fbae3c"></path></g></svg>